/* XPM */
static char * nails_xpm[] = {
"32 32 37 1",
" 	c None",
".	c #6E892F",
"+	c #415E2B",
"@	c #2A2A2A",
"#	c #3371B0",
"$	c #224B8A",
"%	c #174217",
"&	c #4E91D1",
"*	c #5B8AE1",
"=	c #B5C6F1",
"-	c #753E2D",
";	c #D48C52",
">	c #EBB385",
",	c #949494",
"'	c #0A0A0A",
")	c #D3D3D3",
"!	c #28446C",
"~	c #854207",
"{	c #BF7D15",
"]	c #506BA5",
"^	c #FFD9AD",
"/	c #181818",
"(	c #ECC71C",
"_	c #474D37",
":	c #7E8D2B",
"<	c #C1E553",
"[	c #B5C450",
"}	c #3A3E3C",
"|	c #4E4C4A",
"1	c #995D72",
"2	c #75454C",
"3	c #646668",
"4	c #886B3A",
"5	c #BE8CA4",
"6	c #74645A",
"7	c #A3978F",
"8	c #4F3C2F",
".+...+.@####$$$$$$#$$++..+..+++.",
".+++.%..@#&*&#$$##&#$#$$++%..+.+",
"++.+++%@@$#***&$#&&#&&###$+..+..",
".+...$$#&#$$&**#$##&**&###$%++..",
".++%#&*====&#&*&$$##&&##$$$$.+%.",
"+..#&**&&*==&&*#$####&&&#$++..+%",
"..$@@@$*===***&#&#&&&#$#&#@++..+",
"..+.+$*=*&#=*&*&*&**&&#$$#$@+%++",
"+%..$#*&##=*#*&#=&#**&#$#$$%++..",
"++%.$*&#&=*#*&$&*&$#**&#$#@.+..+",
".+%$#&$#&*#&&@-&*#@$#*&#$$$@+..+",
"..+$#@#&&##$@-;$&$->$#&#$@$@++++",
"..++@.#&#$$,'';@#@;''$##$;'.+.++",
"+..+.%##$-;)''>;$;;'')$#$>'%..+.",
".++.++$@@-;)!!>>>>>!!)$#$'++..+.",
"..+..~{~'->)]]^^^^^]]);$/~~+.+++",
"+.+.~{({~~;>^^^^^^^^^>;~{{{~++.+",
".+++~~{(({-;>^^^^^^^>;{{({~~~..%",
"..+~{{~{((({-;;>>>;;-{(({~{{~~.+",
"%._:<[{~~{(({/}}}}}/{(({~~{[<:_+",
"+%.}}:[:/~{(({|121|~(({~/:[:}}.+",
"++}|3|}_}/~~{{~|1|~{{~~/}_}|3|}.",
".+}3|[{4;/~{~~~}3}~~~{~/;4{[|3}.",
".+}|[(4^^>~{([<:|[<:({~>^^4{[|}.",
"++%}:(;;>>{{(~~/}/~~({{>>;;{:}%+",
"+.%}_{4-;/{{([<:}[<:({{/;-4~_}..",
"..++}_~~/~~{({~/}/~{({~~/~~_}..%",
"+.+++}//./}}2}}}}}}}2}}/.//}+..+",
"+..%+.+../}}/2155512/}}/++..++%+",
"+.+%..++%+/67668/86676/.++%..+.+",
"++.+..+%+.+/888/./888/+..++%.+..",
".+..+.++..+/676/./676/+..+.++++."};
